<?xml version="1.0" encoding="utf-8"?>
<!-- Generator: Adobe Illustrator 19.1.0, SVG Export Plug-In . SVG Version: 6.00 Build 0)  -->
<svg version="1.1" id="Layer_1" xmlns="http://www.w3.org/2000/svg" xmlns:xlink="http://www.w3.org/1999/xlink" x="0px" y="0px"
	 viewBox="0 0 40 40" style="enable-background:new 0 0 40 40;" xml:space="preserve">
<style type="text/css">
	.st0{fill:#FFFFFF;}
</style>
<polygon class="st0" points="32.6,25.2 33.9,22.4 29.7,22.4 25,11.6 22.1,11.6 22.1,11.7 23.9,16.3 26.5,22.4 21.5,22.4 20.3,25.2 
	27.7,25.2 29.5,29.4 32.8,29.4 30.9,25.2 "/>
<g>
	<path class="st0" d="M40,40H0V0h40V40z M4.6,35.4h30.9V4.6H4.6V35.4z"/>
</g>
<path class="st0" d="M15.9,25.9c-0.3,0-0.7,0.1-1,0.1c-3.3,0-5.7-2.7-5.7-6.1l0,0c0-3.4,2.4-6.1,5.7-6.1c2,0,3.6,0.6,5.2,2.6
	l1.3-2.9C19.6,12,18,11,14.9,11C9.7,11,6,15,6,19.8l0,0c0,4.9,3.7,8.8,8.6,8.8L15.9,25.9z"/>
</svg>
