<?xml version="1.0" encoding="utf-8"?>
<!-- Generator: Adobe Illustrator 19.1.0, SVG Export Plug-In . SVG Version: 6.00 Build 0)  -->
<svg version="1.1" id="Layer_1" xmlns="http://www.w3.org/2000/svg" xmlns:xlink="http://www.w3.org/1999/xlink" x="0px" y="0px"
	 viewBox="0 0 200 200" style="enable-background:new 0 0 200 200;" xml:space="preserve">
<style type="text/css">
	.st0{fill:#171717;}
</style>
<polygon class="st0" points="163.2,125.8 169.3,112.1 148.5,112.1 124.9,58.2 110.5,58.2 110.5,58.4 119.5,81.6 132.7,112.1 
	107.3,112.1 101.4,125.9 138.4,125.9 147.4,147.2 163.8,147.2 154.5,125.8 "/>
<g>
	<path class="st0" d="M200,200H0V0h200V200z M22.9,177.1h154.3V22.9H22.9V177.1z"/>
</g>
<path class="st0" d="M79.4,129.3c-1.6,0.2-3.3,0.4-5.1,0.4C57.9,129.6,46,116,46,99.2V99c0-16.8,12-30.3,28.3-30.3
	c9.8,0,17.8,3.2,25.9,13l6.4-14.7c-8.4-7.1-16.4-12.1-32.2-12.1c-26,0-44.3,20-44.3,44.4v0.2c0,24.4,18.3,43.8,43,44.1L79.4,129.3z"
	/>
</svg>
