<?xml version="1.0" encoding="utf-8"?>
<!-- Generator: Adobe Illustrator 19.1.0, SVG Export Plug-In . SVG Version: 6.00 Build 0)  -->
<svg version="1.1" id="Layer_1" xmlns="http://www.w3.org/2000/svg" xmlns:xlink="http://www.w3.org/1999/xlink" x="0px" y="0px"
	 viewBox="80 -80 200 200" style="enable-background:new 80 -80 200 200;" xml:space="preserve">
<style type="text/css">
	.st0{fill:#FFFFFF;}
</style>
<polygon class="st0" points="243.2,45.8 249.3,32.1 228.5,32.1 204.9,-21.8 190.5,-21.8 190.5,-21.6 199.5,1.6 212.7,32.1 
	187.3,32.1 181.4,45.9 218.4,45.9 227.4,67.2 243.8,67.2 234.5,45.8 "/>
<g>
	<path class="st0" d="M280,120H80V-80h200V120z M102.9,97.1h154.3V-57.1H102.9V97.1z"/>
</g>
<path class="st0" d="M159.4,49.3c-1.6,0.2-3.3,0.4-5.1,0.4C137.9,49.6,126,36,126,19.2V19c0-16.8,12-30.3,28.3-30.3
	c9.8,0,17.8,3.2,25.9,13l6.4-14.7c-8.4-7.1-16.4-12.1-32.2-12.1c-26,0-44.3,20-44.3,44.4v0.2c0,24.4,18.3,43.8,43,44.1L159.4,49.3z"
	/>
</svg>
