<?xml version="1.0" encoding="utf-8"?>
<!-- Generator: Adobe Illustrator 19.1.0, SVG Export Plug-In . SVG Version: 6.00 Build 0)  -->
<svg version="1.1" xmlns="http://www.w3.org/2000/svg" xmlns:xlink="http://www.w3.org/1999/xlink" x="0px" y="0px"
	 viewBox="-5 -5 50 50" style="enable-background:new -5 -5 50 50;" xml:space="preserve">
<style type="text/css">
	.st0{display:none;}
	.st1{display:inline;}
	.st2{fill:#FFFFFF;}
</style>
<g id="Layer_1" class="st0">
	<polygon class="st1" points="17.4,16.7 20.9,18.3 20.9,13 34.4,7.2 34.4,3.5 34.3,3.5 28.5,5.8 20.9,9 20.9,2.8 17.4,1.3 
		17.4,10.5 12.1,12.8 12.1,16.9 17.4,14.5 	"/>
	<g class="st1">
		<path d="M45,45H-5V-5h50V45z M0.7,39.3h38.6V0.8H0.7V39.3z"/>
	</g>
	<path class="st1" d="M14.9,27.4c-0.4,0-0.9,0.1-1.3,0.1c-4.1,0-7.1-3.4-7.1-7.6l0,0c0-4.2,3-7.6,7.1-7.6c2.5,0,4.5,0.8,6.5,3.3
		l1.6-3.6c-2.2-1.9-4.2-3.1-8.1-3.1c-6.5,0-11.1,5-11.1,11l0,0c0,6.1,4.6,11,10.8,11L14.9,27.4z"/>
</g>
<g id="Layer_2">
	<path class="st2" d="M20-5C6.2-5-5,6.2-5,20S6.2,45,20,45s25-11.2,25-25S33.8-5,20-5z M20.1,39.4c-10.7,0-19.3-8.6-19.3-19.3
		S9.4,0.8,20.1,0.8s19.3,8.6,19.3,19.3S30.7,39.4,20.1,39.4z"/>
	<rect x="17.2" y="9.1" class="st2" width="5.8" height="22"/>
	<rect x="9.1" y="17.2" class="st2" width="22" height="5.8"/>
</g>
<g id="Layer_3" class="st0">
	
		<image style="display:inline;overflow:visible;" width="50" height="50" xlink:href="pointer-down.png"  transform="matrix(1 0 0 1 -5 -5)">
	</image>
</g>
</svg>
