<?xml version="1.0" encoding="utf-8"?>
<!-- Generator: Adobe Illustrator 19.1.0, SVG Export Plug-In . SVG Version: 6.00 Build 0)  -->
<svg version="1.1" id="Layer_1" xmlns="http://www.w3.org/2000/svg" xmlns:xlink="http://www.w3.org/1999/xlink" x="0px" y="0px"
	 viewBox="77 6 194.9 30" style="enable-background:new 77 6 194.9 30;" xml:space="preserve">
<style type="text/css">
	.st0{fill:#FFFFFF;}
</style>
<g>
	<g>
		<path class="st0" d="M82.5,6.1h0.8l5.5,11.3h-1l-1.5-3.1h-6.9l-1.5,3.2H77L82.5,6.1z M86,13.5L82.9,7l-3.1,6.5H86z"/>
		<path class="st0" d="M96.3,6.2h4.9c1.4,0,2.6,0.4,3.3,1.1c0.6,0.5,0.9,1.3,0.9,2.1l0,0c0,1.9-1.5,3-3.4,3.2l3.9,4.8h-1.1l-3.8-4.6
			h-3.8v4.7h-0.9C96.3,17.5,96.3,6.2,96.3,6.2z M101.1,12c2,0,3.4-0.9,3.4-2.6l0,0c0-1.5-1.2-2.5-3.4-2.5h-4V12H101.1z"/>
		<path class="st0" d="M124.3,17.8l-1.7-1.4c-1,0.8-2.3,1.3-3.8,1.3c-3.6,0-5.9-2.7-5.9-5.8l0,0c0.1-3.2,2.4-5.9,6-5.9
			s5.9,2.7,5.9,5.8l0,0c0,1.5-0.6,2.9-1.5,4l1.7,1.4L124.3,17.8z M122,15.8l-2.3-1.8l0.6-0.7l2.2,2c0.8-0.9,1.3-2.1,1.3-3.4l0,0
			c0-2.8-2.1-5.1-5-5.1c-2.9,0-5,2.3-5,5l0,0c0,2.8,2.1,5.1,5,5.1C120.1,16.9,121.2,16.5,122,15.8z"/>
		<path class="st0" d="M132.6,12.8V6.2h0.9v6.5c0,2.7,1.5,4.2,4,4.2c2.4,0,3.9-1.4,3.9-4.1V6.2h0.9v6.5c0,3.2-2,5-4.8,5
			C134.6,17.6,132.6,15.9,132.6,12.8z"/>
		<path class="st0" d="M150.7,6.2h0.9v11.3h-0.9V6.2z"/>
		<path class="st0" d="M163.5,7h-4.1V6.2h9.1V7h-4.1v10.5h-0.9V7z"/>
		<path class="st0" d="M176.1,6.2h8.4V7H177v4.4h6.7v0.8H177v4.5h7.6v0.8h-8.4L176.1,6.2L176.1,6.2z"/>
		<path class="st0" d="M191.9,11.8L191.9,11.8c0-3.2,2.5-5.9,5.9-5.9c2.1,0,3.4,0.7,4.6,1.8l-0.6,0.6c-1-0.9-2.2-1.7-4-1.7
			c-2.8,0-5,2.2-5,5l0,0c0,2.8,2.2,5.1,5,5.1c1.7,0,2.9-0.6,4-1.8l0.6,0.5c-1.2,1.2-2.6,2-4.7,2C194.4,17.6,191.9,15.1,191.9,11.8z"
			/>
		<path class="st0" d="M213.1,7H209V6.2h9.1V7H214v10.5h-0.9V7z"/>
		<path class="st0" d="M225.6,12.8V6.2h0.9v6.5c0,2.7,1.5,4.2,4,4.2c2.4,0,3.9-1.4,3.9-4.1V6.2h0.9v6.5c0,3.2-2,5-4.8,5
			C227.5,17.6,225.6,15.9,225.6,12.8z"/>
		<path class="st0" d="M243.5,6.2h4.9c1.4,0,2.6,0.4,3.3,1.1c0.6,0.5,0.9,1.3,0.9,2.1l0,0c0,1.9-1.5,3-3.4,3.2l3.9,4.8H252l-3.7-4.7
			h-3.8v4.7h-0.9V6.2H243.5z M248.4,12c2,0,3.4-0.9,3.4-2.6l0,0c0-1.5-1.2-2.5-3.4-2.5h-4V12H248.4z"/>
		<path class="st0" d="M265.2,6.1h0.8l5.5,11.3h-1l-1.5-3.1h-6.9l-1.5,3.2h-0.9L265.2,6.1z M268.7,13.5L265.6,7l-3.1,6.5H268.7z"/>
	</g>
	<g>
		<path class="st0" d="M122.5,24.5h2.1v11.3h-2.1V24.5z"/>
		<path class="st0" d="M132.8,24.5h1.9l6.3,7.8v-7.8h2v11.3h-1.7l-6.5-8v8h-2C132.8,35.8,132.8,24.5,132.8,24.5z"/>
		<path class="st0" d="M154,26.4h-3.7v-1.8h9.5v1.8H156v9.4h-2V26.4z"/>
		<path class="st0" d="M167,24.5h8.7v1.8H169v2.9h5.9V31H169v3h6.7v1.8H167V24.5z"/>
		<path class="st0" d="M183.3,24.5h5.2c1.5,0,2.6,0.4,3.4,1.1c0.6,0.6,1,1.4,1,2.4l0,0c0,1.8-1.2,3-2.8,3.4l3.2,4.3h-2.5l-2.9-3.9
			h-2.6v3.9h-2.1V24.5H183.3z M188.3,30.1c1.5,0,2.4-0.7,2.4-1.9l0,0c0-1.2-0.9-1.9-2.4-1.9h-3v3.8H188.3z"/>
		<path class="st0" d="M200.6,24.5h2.1v11.3h-2.1V24.5z"/>
		<path class="st0" d="M210.3,30.2L210.3,30.2c0-3.2,2.6-5.9,6.2-5.9c3.6,0,6.1,2.6,6.1,5.8l0,0c0,3.2-2.6,5.8-6.2,5.8
			C212.8,36,210.3,33.4,210.3,30.2z M220.4,30.2L220.4,30.2c0-2.2-1.7-4-4-4s-4,1.8-4,4l0,0c0,2.2,1.7,4,4,4S220.4,32.4,220.4,30.2z
			"/>
		<path class="st0" d="M230.1,24.5h5.2c1.5,0,2.6,0.4,3.4,1.1c0.6,0.6,1,1.4,1,2.4l0,0c0,1.8-1.2,3-2.8,3.4l3.2,4.3h-2.5l-2.9-3.9
			h-2.6v3.9H230V24.5H230.1z M235.2,30.1c1.5,0,2.4-0.7,2.4-1.9l0,0c0-1.2-0.9-1.9-2.4-1.9h-3v3.8H235.2z"/>
		<path class="st0" d="M247.3,24.5h8.7v1.8h-6.6v2.9h5.9V31h-5.9v3h6.7v1.8h-8.8L247.3,24.5L247.3,24.5z"/>
		<path class="st0" d="M262.8,34.2l1.2-1.4c1.1,0.9,2.3,1.5,3.7,1.5c1.3,0,2.1-0.6,2.1-1.4l0,0c0-0.8-0.5-1.2-2.7-1.7
			c-2.5-0.6-3.9-1.3-3.9-3.4l0,0c0-1.9,1.7-3.3,4-3.3c1.7,0,3.1,0.5,4.3,1.4l-1.1,1.5c-1.1-0.8-2.1-1.2-3.2-1.2
			c-1.2,0-1.9,0.6-1.9,1.3l0,0c0,0.9,0.5,1.3,2.8,1.8c2.5,0.6,3.8,1.4,3.8,3.3l0,0c0,2.1-1.7,3.4-4.2,3.4
			C265.9,36,264.2,35.4,262.8,34.2z"/>
	</g>
	<g>
		<path class="st0" d="M105.7,29.5h-3.6v-0.8h3.6v-3.5h0.8v3.5h3.6v0.8h-3.6V33h-0.8C105.7,33,105.7,29.5,105.7,29.5z"/>
	</g>
</g>
</svg>
