<?xml version="1.0" encoding="utf-8"?>
<!-- Generator: Adobe Illustrator 19.1.0, SVG Export Plug-In . SVG Version: 6.00 Build 0)  -->
<svg version="1.1" id="Layer_1" xmlns="http://www.w3.org/2000/svg" xmlns:xlink="http://www.w3.org/1999/xlink" x="0px" y="0px"
	 viewBox="0 0 194.9 30" style="enable-background:new 0 0 194.9 30;" xml:space="preserve">
<style type="text/css">
	.st0{fill:#171714;}
</style>
<g>
	<g>
		<path class="st0" d="M5.5,0.1h0.8l5.5,11.3h-1L9.3,8.3H2.4l-1.5,3.2H0L5.5,0.1z M9,7.5L5.9,1L2.8,7.5H9z"/>
		<path class="st0" d="M19.3,0.2h4.9c1.4,0,2.6,0.4,3.3,1.1c0.6,0.5,0.9,1.3,0.9,2.1v0c0,1.9-1.5,3-3.4,3.2l3.9,4.8h-1.1L24,6.8
			h-3.8v4.7h-0.9V0.2z M24.1,6c2,0,3.4-0.9,3.4-2.6v0c0-1.5-1.2-2.5-3.4-2.5h-4V6H24.1z"/>
		<path class="st0" d="M47.3,11.8l-1.7-1.4c-1,0.8-2.3,1.3-3.8,1.3c-3.6,0-5.9-2.7-5.9-5.8v0C36,2.7,38.3,0,41.9,0
			c3.6,0,5.9,2.7,5.9,5.8v0c0,1.5-0.6,2.9-1.5,4l1.7,1.4L47.3,11.8z M45,9.8L42.7,8l0.6-0.7l2.2,2c0.8-0.9,1.3-2.1,1.3-3.4v0
			c0-2.8-2.1-5.1-5-5.1c-2.9,0-5,2.3-5,5v0c0,2.8,2.1,5.1,5,5.1C43.1,10.9,44.2,10.5,45,9.8z"/>
		<path class="st0" d="M55.6,6.8V0.2h0.9v6.5c0,2.7,1.5,4.2,4,4.2c2.4,0,3.9-1.4,3.9-4.1V0.2h0.9v6.5c0,3.2-2,5-4.8,5
			C57.6,11.6,55.6,9.9,55.6,6.8z"/>
		<path class="st0" d="M73.7,0.2h0.9v11.3h-0.9V0.2z"/>
		<path class="st0" d="M86.5,1h-4.1V0.2h9.1V1h-4.1v10.5h-0.9V1z"/>
		<path class="st0" d="M99.1,0.2h8.4V1H100v4.4h6.7v0.8H100v4.5h7.6v0.8h-8.4V0.2z"/>
		<path class="st0" d="M114.9,5.8L114.9,5.8c0-3.2,2.5-5.9,5.9-5.9c2.1,0,3.4,0.7,4.6,1.8l-0.6,0.6c-1-0.9-2.2-1.7-4-1.7
			c-2.8,0-5,2.2-5,5v0c0,2.8,2.2,5.1,5,5.1c1.7,0,2.9-0.6,4-1.8l0.6,0.5c-1.2,1.2-2.6,2-4.7,2C117.4,11.6,114.9,9.1,114.9,5.8z"/>
		<path class="st0" d="M136.1,1H132V0.2h9.1V1H137v10.5h-0.9V1z"/>
		<path class="st0" d="M148.6,6.8V0.2h0.9v6.5c0,2.7,1.5,4.2,4,4.2c2.4,0,3.9-1.4,3.9-4.1V0.2h0.9v6.5c0,3.2-2,5-4.8,5
			C150.5,11.6,148.6,9.9,148.6,6.8z"/>
		<path class="st0" d="M166.5,0.2h4.9c1.4,0,2.6,0.4,3.3,1.1c0.6,0.5,0.9,1.3,0.9,2.1v0c0,1.9-1.5,3-3.4,3.2l3.9,4.8H175l-3.7-4.7
			h-3.8v4.7h-0.9V0.2z M171.4,6c2,0,3.4-0.9,3.4-2.6v0c0-1.5-1.2-2.5-3.4-2.5h-4V6H171.4z"/>
		<path class="st0" d="M188.2,0.1h0.8l5.5,11.3h-1L192,8.3h-6.9l-1.5,3.2h-0.9L188.2,0.1z M191.7,7.5L188.6,1l-3.1,6.5H191.7z"/>
	</g>
	<g>
		<path class="st0" d="M45.5,18.5h2.1v11.3h-2.1V18.5z"/>
		<path class="st0" d="M55.8,18.5h1.9l6.3,7.8v-7.8h2v11.3h-1.7l-6.5-8v8h-2V18.5z"/>
		<path class="st0" d="M77,20.4h-3.7v-1.8h9.5v1.8H79v9.4H77V20.4z"/>
		<path class="st0" d="M90,18.5h8.7v1.8H92v2.9h5.9V25H92v3h6.7v1.8H90V18.5z"/>
		<path class="st0" d="M106.3,18.5h5.2c1.5,0,2.6,0.4,3.4,1.1c0.6,0.6,1,1.4,1,2.4v0c0,1.8-1.2,3-2.8,3.4l3.2,4.3h-2.5l-2.9-3.9
			h-2.6v3.9h-2.1V18.5z M111.3,24.1c1.5,0,2.4-0.7,2.4-1.9v0c0-1.2-0.9-1.9-2.4-1.9h-3v3.8H111.3z"/>
		<path class="st0" d="M123.6,18.5h2.1v11.3h-2.1V18.5z"/>
		<path class="st0" d="M133.3,24.2L133.3,24.2c0-3.2,2.6-5.9,6.2-5.9c3.6,0,6.1,2.6,6.1,5.8v0c0,3.2-2.6,5.8-6.2,5.8
			C135.8,30,133.3,27.4,133.3,24.2z M143.4,24.2L143.4,24.2c0-2.2-1.7-4-4-4c-2.3,0-4,1.8-4,4v0c0,2.2,1.7,4,4,4
			S143.4,26.4,143.4,24.2z"/>
		<path class="st0" d="M153.1,18.5h5.2c1.5,0,2.6,0.4,3.4,1.1c0.6,0.6,1,1.4,1,2.4v0c0,1.8-1.2,3-2.8,3.4l3.2,4.3h-2.5l-2.9-3.9
			h-2.6v3.9h-2.1V18.5z M158.2,24.1c1.5,0,2.4-0.7,2.4-1.9v0c0-1.2-0.9-1.9-2.4-1.9h-3v3.8H158.2z"/>
		<path class="st0" d="M170.3,18.5h8.7v1.8h-6.6v2.9h5.9V25h-5.9v3h6.7v1.8h-8.8V18.5z"/>
		<path class="st0" d="M185.8,28.2l1.2-1.4c1.1,0.9,2.3,1.5,3.7,1.5c1.3,0,2.1-0.6,2.1-1.4v0c0-0.8-0.5-1.2-2.7-1.7
			c-2.5-0.6-3.9-1.3-3.9-3.4v0c0-1.9,1.7-3.3,4-3.3c1.7,0,3.1,0.5,4.3,1.4l-1.1,1.5c-1.1-0.8-2.1-1.2-3.2-1.2
			c-1.2,0-1.9,0.6-1.9,1.3v0c0,0.9,0.5,1.3,2.8,1.8c2.5,0.6,3.8,1.4,3.8,3.3v0c0,2.1-1.7,3.4-4.2,3.4
			C188.9,30,187.2,29.4,185.8,28.2z"/>
	</g>
	<g>
		<path class="st0" d="M28.7,23.5h-3.6v-0.8h3.6v-3.5h0.8v3.5h3.6v0.8h-3.6V27h-0.8V23.5z"/>
	</g>
</g>
</svg>
